<svg xmlns="http://www.w3.org/2000/svg"  viewBox="0 0 100 100" width="100px" height="100px"><path fill="#c7ede6" d="M86.665,54.492c1.135-2.155,1.785-4.605,1.785-7.21c0-6.621-4.159-12.257-10.001-14.478 c0-0.008,0.001-0.015,0.001-0.022c0-11.598-9.402-21-21-21c-9.784,0-17.981,6.701-20.313,15.757 c-1.476-0.485-3.048-0.757-4.687-0.757c-7.692,0-14.023,5.793-14.89,13.252c-5.204,1.1-9.11,5.716-9.11,11.248 c0,6.351,5.149,11.5,11.5,11.5c0.177,0,0.352-0.012,0.526-0.022c-0.004,0.175-0.026,0.346-0.026,0.522 c0,11.322,9.178,20.5,20.5,20.5c6.437,0,12.175-2.972,15.934-7.614c2.178,2.225,5.207,3.614,8.566,3.614 c4.65,0,8.674-2.65,10.666-6.518c1.052,0.334,2.171,0.518,3.334,0.518c6.075,0,11-4.925,11-11 C90.45,59.471,88.98,56.509,86.665,54.492z"/><path fill="#fff" d="M14.95,48.782h-10c-0.276,0-0.5-0.224-0.5-0.5s0.224-0.5,0.5-0.5h10c0.276,0,0.5,0.224,0.5,0.5 S15.227,48.782,14.95,48.782z"/><path fill="#fff" d="M17.95,48.782h-1c-0.276,0-0.5-0.224-0.5-0.5s0.224-0.5,0.5-0.5h1c0.276,0,0.5,0.224,0.5,0.5 S18.227,48.782,17.95,48.782z"/><path fill="#fff" d="M22.941,50.782H13.95c-0.276,0-0.5-0.224-0.5-0.5s0.224-0.5,0.5-0.5h8.991 c0.276,0,0.5,0.224,0.5,0.5S23.217,50.782,22.941,50.782z"/><path fill="#fff" d="M11.95,50.782h-1c-0.276,0-0.5-0.224-0.5-0.5s0.224-0.5,0.5-0.5h1c0.276,0,0.5,0.224,0.5,0.5 S12.227,50.782,11.95,50.782z"/><path fill="#fff" d="M8.95,50.782h-2c-0.276,0-0.5-0.224-0.5-0.5s0.224-0.5,0.5-0.5h2c0.276,0,0.5,0.224,0.5,0.5 S9.227,50.782,8.95,50.782z"/><path fill="#fff" d="M14.95,52.782h-2c-0.276,0-0.5-0.224-0.5-0.5s0.224-0.5,0.5-0.5h2c0.276,0,0.5,0.224,0.5,0.5 S15.226,52.782,14.95,52.782z"/><path fill="#fff" d="M17.95,43.782c-0.177,0-0.823,0-1,0c-0.276,0-0.5,0.224-0.5,0.5c0,0.276,0.224,0.5,0.5,0.5 c0.177,0,0.823,0,1,0c0.276,0,0.5-0.224,0.5-0.5C18.45,44.006,18.226,43.782,17.95,43.782z"/><path fill="#fff" d="M17.95,45.782c-0.177,0-4.823,0-5,0c-0.276,0-0.5,0.224-0.5,0.5c0,0.276,0.224,0.5,0.5,0.5 c0.177,0,4.823,0,5,0c0.276,0,0.5-0.224,0.5-0.5C18.45,46.006,18.226,45.782,17.95,45.782z"/><path fill="#fff" d="M22.95,47.782c-0.177,0-2.823,0-3,0c-0.276,0-0.5,0.224-0.5,0.5c0,0.276,0.224,0.5,0.5,0.5 c0.177,0,2.823,0,3,0c0.276,0,0.5-0.224,0.5-0.5C23.45,48.006,23.226,47.782,22.95,47.782z"/><g><path fill="#fff" d="M71.95,21.782h-10c-0.276,0-0.5-0.224-0.5-0.5s0.224-0.5,0.5-0.5h10c0.276,0,0.5,0.224,0.5,0.5 S72.226,21.782,71.95,21.782z"/><path fill="#fff" d="M75.95,21.782h-2c-0.276,0-0.5-0.224-0.5-0.5s0.224-0.5,0.5-0.5h2c0.276,0,0.5,0.224,0.5,0.5 S76.226,21.782,75.95,21.782z"/><path fill="#fff" d="M80.95,23.782h-10c-0.276,0-0.5-0.224-0.5-0.5s0.224-0.5,0.5-0.5h10c0.276,0,0.5,0.224,0.5,0.5 S81.227,23.782,80.95,23.782z"/><path fill="#fff" d="M68.95,23.782h-1c-0.276,0-0.5-0.224-0.5-0.5s0.224-0.5,0.5-0.5h1c0.276,0,0.5,0.224,0.5,0.5 S69.226,23.782,68.95,23.782z"/><path fill="#fff" d="M65.92,23.782h-1.97c-0.276,0-0.5-0.224-0.5-0.5s0.224-0.5,0.5-0.5h1.97c0.276,0,0.5,0.224,0.5,0.5 S66.196,23.782,65.92,23.782z"/><path fill="#fff" d="M74.95,19.782h-5c-0.276,0-0.5-0.224-0.5-0.5s0.224-0.5,0.5-0.5h5c0.276,0,0.5,0.224,0.5,0.5 S75.227,19.782,74.95,19.782z"/><path fill="#fff" d="M71.95,25.782h-2c-0.276,0-0.5-0.224-0.5-0.5s0.224-0.5,0.5-0.5h2c0.276,0,0.5,0.224,0.5,0.5 S72.226,25.782,71.95,25.782z"/></g><path fill="#ae5ca3" d="M64.234,72H35.766C30.925,72,27,68.075,27,63.234V34.766C27,29.925,30.925,26,35.766,26h28.468	C69.075,26,73,29.925,73,34.766v28.468C73,68.075,69.075,72,64.234,72z"/><path fill="#472b29" d="M65,27.4c3.639,0,6.6,2.961,6.6,6.6v30c0,3.639-2.961,6.6-6.6,6.6H35c-3.639,0-6.6-2.961-6.6-6.6V34	c0-3.639,2.961-6.6,6.6-6.6H65 M65,26H35c-4.4,0-8,3.6-8,8v30c0,4.4,3.6,8,8,8h30c4.4,0,8-3.6,8-8V34C73,29.6,69.4,26,65,26L65,26z"/><g><path fill="#fdfcef" d="M55.704,62.674c-0.028,0-0.058-0.015-0.079-0.04c0.108-1.048,0.214-1.896,0.301-2.643 c0.011-0.095,0.068-0.173,0.161-0.221c4.418-2.293,7.163-6.804,7.163-11.77c0-7.306-5.944-13.25-13.25-13.25 c-0.492,0-0.993,0.027-1.487,0.082c-6.169,0.676-11.088,5.652-11.697,11.834c-0.539,5.48,2.276,10.638,7.175,13.139 c0.043,0.022,0.097,0.066,0.106,0.146c0.08,0.742,0.183,1.581,0.312,2.531c0.009,0.06-0.021,0.103-0.038,0.123 c-0.028,0.033-0.067,0.052-0.104,0.052c-6.822-2.684-10.86-9.618-9.864-16.87c0.885-6.443,7.341-12.722,13.815-13.438 C48.811,32.283,49.41,32.25,50,32.25c8.685,0,15.75,7.065,15.75,15.75c0,6.425-4.024,12.319-10.015,14.667L55.704,62.674z"/><path fill="#472b29" d="M50,32.5c8.547,0,15.5,6.953,15.5,15.5c0,6.239-3.857,11.97-9.623,14.341 c0.105-0.746,0.205-1.51,0.325-2.349C60.703,57.655,63.5,53.06,63.5,48c0-7.444-6.056-13.5-13.5-13.5 c-0.501,0-1.011,0.028-1.514,0.083c-6.286,0.688-11.298,5.759-11.918,12.058c-0.549,5.574,2.31,10.821,7.285,13.374 c0.077,0.711,0.173,1.494,0.287,2.33c-6.564-2.683-10.46-9.449-9.489-16.524c0.87-6.34,7.223-12.519,13.595-13.223 C48.829,32.533,49.419,32.5,50,32.5 M50,32c-0.596,0-1.2,0.033-1.81,0.1c-6.636,0.733-13.128,7.038-14.036,13.652 C33.1,53.436,37.555,60.284,44.13,62.88c0.046,0.018,0.092,0.026,0.136,0.026c0.227,0,0.425-0.213,0.391-0.459 c-0.13-0.947-0.233-1.784-0.312-2.524c-0.016-0.15-0.107-0.273-0.241-0.341c-4.574-2.336-7.589-7.306-7.039-12.892 c0.594-6.03,5.452-10.951,11.475-11.61C49.032,35.026,49.519,35,50,35c7.17,0,13,5.83,13,13c0,5.016-2.851,9.379-7.029,11.548 c-0.163,0.084-0.273,0.232-0.294,0.414c-0.087,0.745-0.192,1.591-0.328,2.542c-0.032,0.224,0.148,0.419,0.355,0.419 c0.041,0,0.082-0.007,0.123-0.023C61.78,60.566,66,54.767,66,48C66,39.18,58.82,32,50,32L50,32z"/></g><g><path fill="#fdfcef" d="M43.871,55.576c-2.672-2.167-3.991-5.502-3.53-8.922c0.585-4.333,4.166-7.839,8.516-8.338 c0.38-0.044,0.765-0.066,1.144-0.066c5.376,0,9.75,4.374,9.75,9.75c0,2.811-1.221,5.486-3.349,7.341 c-0.049,0.042-0.1,0.051-0.134,0.051c-0.08,0-0.171-0.048-0.184-0.154c-0.06-0.522-0.163-0.938-0.324-1.308 c-0.136-0.322-0.311-0.633-0.521-0.927c1.298-1.355,2.011-3.123,2.011-5.002c0-3.998-3.252-7.25-7.25-7.25 c-0.482,0-0.972,0.048-1.455,0.143c-2.847,0.558-5.121,2.847-5.661,5.697c-0.445,2.349,0.259,4.733,1.886,6.423 c-0.214,0.298-0.385,0.601-0.52,0.919c-0.188,0.438-0.294,0.938-0.344,1.62l-0.03,0.025C43.874,55.578,43.874,55.578,43.871,55.576 z"/><path fill="#472b29" d="M50,38.5c5.238,0,9.5,4.262,9.5,9.5c0,2.715-1.17,5.302-3.181,7.098 c-0.065-0.499-0.171-0.904-0.328-1.262c-0.118-0.279-0.262-0.55-0.433-0.809C56.813,51.645,57.5,49.876,57.5,48 c0-4.135-3.365-7.5-7.5-7.5c-0.499,0-1.005,0.05-1.504,0.147c-2.945,0.577-5.299,2.946-5.858,5.896 c-0.448,2.36,0.228,4.756,1.812,6.493c-0.173,0.26-0.315,0.523-0.43,0.797c-0.156,0.366-0.259,0.768-0.321,1.269 c-2.382-2.112-3.54-5.226-3.11-8.415c0.569-4.221,4.058-7.637,8.296-8.123C49.256,38.522,49.631,38.5,50,38.5 M50,38 c-0.386,0-0.777,0.022-1.172,0.067c-4.474,0.513-8.133,4.091-8.735,8.553c-0.496,3.68,1.03,7.048,3.621,9.15 c0.049,0.04,0.106,0.058,0.162,0.058c0.136,0,0.269-0.105,0.28-0.258c0.055-0.746,0.176-1.194,0.324-1.54 c0.16-0.38,0.37-0.72,0.62-1.04c-1.598-1.561-2.44-3.877-1.971-6.354c0.52-2.743,2.723-4.961,5.463-5.498 C49.069,41.045,49.54,41,50,41c3.86,0,7,3.14,7,7c0,1.95-0.8,3.71-2.09,4.98c0.25,0.32,0.46,0.67,0.62,1.05 c0.128,0.291,0.24,0.667,0.306,1.236c0.027,0.234,0.225,0.376,0.432,0.376c0.104,0,0.209-0.035,0.298-0.112 C58.669,53.696,60,51,60,48C60,42.49,55.51,38,50,38L50,38z"/></g><g><path fill="#fdfcef" d="M50,51.22c-0.497,0-0.981-0.104-1.438-0.308c-1.239-0.568-2.042-1.813-2.042-3.172 c0-1.924,1.562-3.49,3.48-3.49c1.925,0,3.49,1.566,3.49,3.49c0,1.359-0.803,2.604-2.045,3.172C50.991,51.116,50.504,51.22,50,51.22 z"/><path fill="#472b29" d="M50,44.5c1.787,0,3.24,1.453,3.24,3.24c0,1.262-0.745,2.418-1.894,2.944 c-0.426,0.19-0.878,0.286-1.346,0.286c-0.461,0-0.911-0.096-1.332-0.285c-1.153-0.527-1.898-1.683-1.898-2.945 C46.77,45.953,48.219,44.5,50,44.5 M50,44c-2.06,0-3.73,1.67-3.73,3.74c0,1.51,0.9,2.81,2.19,3.4c0.47,0.21,0.99,0.33,1.54,0.33 c0.56,0,1.08-0.12,1.55-0.33c1.29-0.59,2.19-1.89,2.19-3.4C53.74,45.67,52.07,44,50,44L50,44z"/></g><path fill="#fdfcef" stroke="#472b29" stroke-linecap="round" stroke-linejoin="bevel" stroke-miterlimit="10" stroke-width=".5" d="M54.15,54.62c-0.11-0.26-0.25-0.49-0.42-0.7C53,53.01,51.7,52.5,50.04,52.5H50c-1.67,0.01-2.97,0.51-3.72,1.42	c-0.17,0.21-0.31,0.44-0.42,0.7c-0.09,0.21-0.28,0.67-0.23,2.37c0.02,0.8,0.1,1.88,0.26,3.34c0.09,0.76,0.2,1.62,0.34,2.6	c0.03,0.22,0.06,0.43,0.09,0.63c0.5,3.28,0.86,4.15,2.42,4.71l0.02,0.01c0.42,0.15,0.85,0.22,1.28,0.22c0.86,0,1.68-0.31,2.3-0.86	c0.68-0.6,0.95-1.37,1.35-4.08c0.03-0.2,0.06-0.41,0.09-0.63c0.14-0.98,0.25-1.84,0.34-2.6c0.16-1.46,0.24-2.54,0.26-3.34	C54.43,55.28,54.24,54.82,54.15,54.62z"/><g><path fill="#fdfcef" d="M85.582,57.97c0,0,1.567,0,3.5,0s3.5-1.567,3.5-3.5c0-1.781-1.335-3.234-3.055-3.455 c0.028-0.179,0.055-0.358,0.055-0.545c0-1.933-1.567-3.5-3.5-3.5c-1.032,0-1.95,0.455-2.59,1.165 c-0.384-1.808-1.987-3.165-3.91-3.165c-2.209,0-4,1.791-4,4c0,0.191,0.03,0.374,0.056,0.558c-0.428-0.344-0.965-0.558-1.556-0.558 c-1.228,0-2.245,0.887-2.455,2.055c-0.179-0.028-0.358-0.055-0.545-0.055c-1.933,0-3.5,1.567-3.5,3.5s1.567,3.5,3.5,3.5 s7.5,0,7.5,0v0.5h7V57.97z"/><path fill="#472b29" d="M87.332,53.47c-0.138,0-0.25-0.112-0.25-0.25c0-1.223,0.995-2.218,2.218-2.218 c0.034,0.009,0.737-0.001,1.244,0.136c0.133,0.036,0.212,0.173,0.176,0.306c-0.036,0.134-0.173,0.213-0.306,0.176 c-0.444-0.12-1.1-0.12-1.113-0.118c-0.948,0-1.719,0.771-1.719,1.718C87.582,53.358,87.471,53.47,87.332,53.47z"/><circle cx="80.582" cy="57.97" r=".5" fill="#472b29"/><path fill="#472b29" d="M89.082,58.47h-3.5c-0.276,0-0.5-0.224-0.5-0.5s0.224-0.5,0.5-0.5h3.5c1.654,0,3-1.346,3-3 c0-1.496-1.125-2.768-2.618-2.959c-0.134-0.018-0.255-0.088-0.336-0.196s-0.115-0.244-0.094-0.377 c0.024-0.153,0.049-0.308,0.049-0.468c0-1.654-1.346-3-3-3c-0.85,0-1.638,0.355-2.219,1c-0.125,0.139-0.321,0.198-0.5,0.148 c-0.182-0.049-0.321-0.195-0.36-0.379c-0.341-1.604-1.779-2.769-3.42-2.769c-1.93,0-3.5,1.57-3.5,3.5 c0,0.143,0.021,0.28,0.041,0.418c0.029,0.203-0.063,0.438-0.242,0.54c-0.179,0.102-0.396,0.118-0.556-0.01 c-0.365-0.293-0.794-0.448-1.243-0.448c-0.966,0-1.792,0.691-1.963,1.644c-0.048,0.267-0.296,0.446-0.569,0.405 c-0.153-0.024-0.308-0.049-0.468-0.049c-1.654,0-3,1.346-3,3s1.346,3,3,3h7.5c0.276,0,0.5,0.224,0.5,0.5s-0.224,0.5-0.5,0.5h-7.5 c-2.206,0-4-1.794-4-4s1.794-4,4-4c0.059,0,0.116,0.002,0.174,0.006c0.414-1.186,1.537-2.006,2.826-2.006 c0.349,0,0.689,0.061,1.011,0.18c0.165-2.333,2.115-4.18,4.489-4.18c1.831,0,3.466,1.127,4.153,2.774 c0.68-0.499,1.502-0.774,2.347-0.774c2.206,0,4,1.794,4,4c0,0.048-0.001,0.095-0.004,0.142c1.743,0.448,3.004,2.027,3.004,3.858 C93.082,56.676,91.288,58.47,89.082,58.47z"/><path fill="#472b29" d="M83.582,57.47c-0.159,0-0.841,0-1,0c-0.276,0-0.5,0.224-0.5,0.5c0,0.276,0.224,0.5,0.5,0.5 c0.159,0,0.841,0,1,0c0.276,0,0.5-0.224,0.5-0.5C84.082,57.694,83.858,57.47,83.582,57.47z"/></g><g><path fill="#fdfcef" d="M29.95,74.532v0.5h3v-0.5c0,0,4.242,0,5.5,0c2.485,0,4.5-2.015,4.5-4.5 c0-2.333-1.782-4.229-4.055-4.455c0.022-0.181,0.055-0.358,0.055-0.545c0-2.485-2.015-4.5-4.5-4.5 c-1.438,0-2.703,0.686-3.527,1.736c-0.14-2.636-2.302-4.736-4.973-4.736c-2.761,0-5,2.239-5,5c0,0.446,0.077,0.87,0.187,1.282 c-0.642-0.777-1.6-1.282-2.687-1.282c-1.781,0-3.234,1.335-3.455,3.055c-0.181-0.022-0.358-0.055-0.545-0.055 c-2.485,0-4.5,2.015-4.5,4.5s2.015,4.5,4.5,4.5s9.5,0,9.5,0H29.95z"/><path fill="#472b29" d="M25.95,57.032c-3.033,0-5.5,2.467-5.5,5.5c0,0.016,0,0.031,0,0.047c-0.602-0.354-1.29-0.547-2-0.547 c-1.831,0-3.411,1.261-3.858,3.005c-0.047-0.003-0.094-0.005-0.142-0.005c-2.757,0-5,2.243-5,5c0,2.757,2.243,5,5,5h15.5 c0.276,0,0.5-0.224,0.5-0.5c0-0.276-0.224-0.5-0.5-0.5h-15.5c-2.206,0-4-1.794-4-4c0-2.206,1.794-4,4-4 c0.117,0,0.23,0.017,0.343,0.032l0.141,0.019c0.021,0.003,0.041,0.004,0.062,0.004c0.246,0,0.462-0.185,0.495-0.437 c0.191-1.493,1.463-2.618,2.959-2.618c0.885,0,1.723,0.401,2.301,1.1c0.098,0.118,0.241,0.182,0.386,0.182 c0.078,0,0.156-0.018,0.228-0.056c0.209-0.107,0.314-0.346,0.254-0.573c-0.116-0.436-0.17-0.802-0.17-1.153 c0-2.481,2.019-4.5,4.5-4.5c2.381,0,4.347,1.872,4.474,4.263c0.011,0.208,0.15,0.387,0.349,0.45 c0.05,0.016,0.101,0.024,0.152,0.024c0.15,0,0.296-0.069,0.392-0.192c0.771-0.981,1.913-1.544,3.133-1.544c2.206,0,4,1.794,4,4 c0,0.117-0.017,0.23-0.032,0.343l-0.019,0.141c-0.016,0.134,0.022,0.268,0.106,0.373c0.084,0.105,0.207,0.172,0.34,0.185 c2.055,0.205,3.604,1.906,3.604,3.958c0,2.206-1.794,4-4,4h-5.5c-0.276,0-0.5,0.224-0.5,0.5c0,0.276,0.224,0.5,0.5,0.5h5.5 c2.757,0,5-2.243,5-5c0-2.397-1.689-4.413-4.003-4.877c0.002-0.041,0.003-0.082,0.003-0.123c0-2.757-2.243-5-5-5 c-1.176,0-2.293,0.416-3.183,1.164C30.669,58.792,28.505,57.032,25.95,57.032L25.95,57.032z"/><path fill="#472b29" d="M24.45,64.032c-1.403,0-2.609,0.999-2.913,2.341c-0.367-0.222-0.786-0.341-1.212-0.341 c-1.202,0-2.198,0.897-2.353,2.068c-0.203-0.045-0.396-0.068-0.585-0.068c-1.529,0-2.811,1.2-2.918,2.732 c-0.009,0.138,0.094,0.257,0.232,0.267c0.006,0,0.012,0,0.018,0c0.13,0,0.24-0.101,0.249-0.232 c0.089-1.271,1.151-2.268,2.419-2.268c0.229,0,0.47,0.042,0.738,0.127c0.022,0.007,0.045,0.01,0.067,0.01 c0.055,0,0.11-0.02,0.156-0.054c0.064-0.047,0.102-0.129,0.102-0.209c0-1.034,0.841-1.875,1.875-1.875 c0.447,0,0.885,0.168,1.231,0.473c0.047,0.041,0.106,0.063,0.165,0.063c0.032,0,0.063-0.006,0.093-0.019 c0.088-0.035,0.148-0.117,0.155-0.212c0.102-1.292,1.191-2.305,2.479-2.305c0.208,0,0.425,0.034,0.682,0.107 c0.023,0.007,0.047,0.01,0.07,0.01c0.109,0,0.207-0.073,0.239-0.182c0.038-0.133-0.039-0.271-0.172-0.309 C24.967,64.072,24.706,64.032,24.45,64.032L24.45,64.032z"/><path fill="#472b29" d="M38.333,65.532c-1.326,0-2.508,0.897-2.874,2.182c-0.038,0.133,0.039,0.271,0.172,0.309 c0.023,0.007,0.046,0.01,0.068,0.01c0.109,0,0.209-0.072,0.24-0.182c0.305-1.071,1.289-1.818,2.393-1.818 c0.117,0,0.23,0.014,0.342,0.029c0.012,0.002,0.023,0.003,0.035,0.003c0.121,0,0.229-0.092,0.246-0.217 c0.019-0.137-0.077-0.263-0.214-0.281C38.608,65.548,38.473,65.532,38.333,65.532L38.333,65.532z"/></g></svg>